<?xml version="1.0" encoding="UTF-8" standalone="no"?>
<!DOCTYPE svg PUBLIC "-//W3C//DTD SVG 1.1//EN" "http://www.w3.org/Graphics/SVG/1.1/DTD/svg11.dtd">
<svg version="1.1" xmlns="http://www.w3.org/2000/svg" xmlns:xlink="http://www.w3.org/1999/xlink" preserveAspectRatio="xMidYMid meet" viewBox="0 0 640 640" width="200" height="200"><defs><path d="M543.59 554.07L96.39 554.07L96.39 407.87L10.44 407.87C10.44 521.38 10.44 584.43 10.44 597.05C10.44 620.76 29.65 640 53.48 640C106.78 640 533.2 640 586.5 640C610.3 640 629.54 620.79 629.54 597.05C629.54 584.43 629.54 521.38 629.54 407.87L543.59 407.87L543.59 554.07Z" id="dBynX5ZGy"></path><path d="M189.07 244.68C189.07 244.68 170.34 227 190.65 227C210.95 227 259.99 227 259.99 227C259.99 227 259.99 215.11 259.99 196.77C259.99 144.49 259.99 49.34 259.99 10.55C259.99 10.55 257.23 0 273.12 0C289.13 0 359.26 0 370.73 0C382.17 0 381.91 8.88 381.91 8.88C381.91 46.5 381.91 144.94 381.91 195.51C381.91 211.91 381.91 222.54 381.91 222.54C381.91 222.54 421.24 222.54 445.92 222.54C470.55 222.54 452 241.05 452 241.05C452 241.05 347.31 380.03 332.7 394.61C322.2 405.18 312.12 393.38 312.12 393.38C287.51 363.64 201.37 259.55 189.07 244.68Z" id="c3CBrBBpWJ"></path></defs><g><g><g><use xlink:href="#dBynX5ZGy" opacity="1" fill="#87c9e6" fill-opacity="1"></use><g><use xlink:href="#dBynX5ZGy" opacity="1" fill-opacity="0" stroke="#000000" stroke-width="1" stroke-opacity="0"></use></g></g><g><use xlink:href="#c3CBrBBpWJ" opacity="1" fill="#f8f8f8" fill-opacity="1"></use><g><use xlink:href="#c3CBrBBpWJ" opacity="1" fill-opacity="0" stroke="#000000" stroke-width="1" stroke-opacity="0"></use></g><g><filter id="shadow6828734" x="172.19" y="-9" width="296.51" height="418.01" filterUnits="userSpaceOnUse" primitiveUnits="userSpaceOnUse"><feFlood></feFlood><feComposite in2="SourceAlpha" operator="out"></feComposite><feGaussianBlur stdDeviation="1"></feGaussianBlur><feOffset dx="1" dy="1" result="afterOffset"></feOffset><feFlood flood-color="#fffefe" flood-opacity="0.5"></feFlood><feComposite in2="afterOffset" operator="in"></feComposite><feMorphology operator="dilate" radius="1"></feMorphology><feComposite in2="SourceAlpha" operator="in"></feComposite></filter><path d="M189.07 244.68C189.07 244.68 170.34 227 190.65 227C210.95 227 259.99 227 259.99 227C259.99 227 259.99 215.11 259.99 196.77C259.99 144.49 259.99 49.34 259.99 10.55C259.99 10.55 257.23 0 273.12 0C289.13 0 359.26 0 370.73 0C382.17 0 381.91 8.88 381.91 8.88C381.91 46.5 381.91 144.94 381.91 195.51C381.91 211.91 381.91 222.54 381.91 222.54C381.91 222.54 421.24 222.54 445.92 222.54C470.55 222.54 452 241.05 452 241.05C452 241.05 347.31 380.03 332.7 394.61C322.2 405.18 312.12 393.38 312.12 393.38C287.51 363.64 201.37 259.55 189.07 244.68Z" id="b8ZrMGMJFp" fill="white" fill-opacity="1" filter="url(#shadow6828734)"></path></g></g></g></g></svg>