<svg height="256" viewBox="0 0 256 256" width="256" xmlns="http://www.w3.org/2000/svg"><path d="m203.93143 188.03428c0 8.61715-6.99429 15.61143-15.61143 15.61143s-15.61143-6.99428-15.61143-15.61143c0-8.61714 6.99429-15.61143 15.61143-15.61143s15.61143 6.99429 15.61143 15.61143zm36.06857-77.53143v103.38286c0 14.26286-11.58857 25.85143-25.85143 25.85143h-172.29714c-14.26286-.0229-25.85143-11.58857-25.85143-25.85143v-103.38286c0-11.862847 8.04571-21.759997 18.94857-24.799997-.0229-.365711-.11428-.68571-.11428-1.051421 0-8.617149 6.99428-15.61143 15.61142-15.61143 2.05715 0 4 .43428 5.78286 1.14285l149.82857-41.531414c0-6.83429 5.55429-12.38858 12.38857-12.38858 6.83429 0 12.38858 5.55429 12.38858 12.38858 0 6.83428-5.55429 12.38857-12.38858 12.38857-4.50285 0-8.25142-2.51429-10.42285-6.08l-143.45143 43.108565c.93714 2.01143 1.48571 4.22857 1.48571 6.58286h148.06857c14.28572 0 25.87429 11.58857 25.87429 25.851417zm-93.87429 25.85143h68.02286v-34.46857h-68.02286zm-104.27428-34.46857v34.46857h95.65714v-34.46857zm8 64.61714c0-2.37714-1.92-4.29714-4.29714-4.29714-2.37715 0-4.29715 1.92-4.29715 4.29714v43.06286c0 2.37714 1.92 4.29714 4.29715 4.29714 2.37714 0 4.29714-1.92 4.29714-4.29714zm17.25714 0c0-2.37714-1.92-4.29714-4.29714-4.29714s-4.32 1.92-4.32 4.29714v43.06286c0 2.37714 1.92 4.29714 4.29714 4.29714s4.29714-1.92 4.29714-4.29714zm17.21143 0c0-2.37714-1.92-4.29714-4.29714-4.29714-2.37715 0-4.29715 1.92-4.29715 4.29714v43.06286c0 2.37714 1.92 4.29714 4.29715 4.29714 2.37714 0 4.29714-1.92 4.29714-4.29714zm17.23429 0c0-2.37714-1.92-4.29714-4.29715-4.29714-2.37714 0-4.29714 1.92-4.29714 4.29714v43.06286c0 2.37714 1.92 4.29714 4.29714 4.29714 2.37715 0 4.29715-1.92 4.29715-4.29714zm17.23428 0c0-2.37714-1.92-4.29714-4.29714-4.29714s-4.32 1.92-4.32 4.29714v43.06286c0 2.37714 1.92 4.29714 4.29714 4.29714s4.29714-1.92 4.29714-4.29714zm96.8 21.53143c0-15.06285-12.20571-27.26857-27.26857-27.26857s-27.26857 12.20572-27.26857 27.26857c0 15.06286 12.20571 27.26857 27.26857 27.26857s27.26857-12.20571 27.26857-27.26857z" fill="#fff" stroke-width=".228571"/></svg>