<svg height="256" viewBox="0 0 256 256" width="256" xmlns="http://www.w3.org/2000/svg"><path d="m115.55556 190.22222a12.444444 12.444444 0 0 0 12.44444 12.44445 12.444444 12.444444 0 0 0 12.44444-12.44445 12.444444 12.444444 0 0 0 -12.44444-12.44444 12.444444 12.444444 0 0 0 -12.44444 12.44444m0-174.22222v49.77778h24.88888v-23.89334c42.18667 6.09778 74.66667 42.18667 74.66667 86.11556a87.111111 87.111111 0 0 1 -87.11111 87.11111 87.111111 87.111111 0 0 1 -87.111111-87.11111c0-20.90667 7.342222-40.07111 19.662222-55.00444l67.448889 67.44888 17.54667-17.54666-84.622226-84.62222v.24888c-27.253333 20.40889-44.924444 52.76445-44.924444 89.47556a112 112 0 0 0 112 112 112 112 0 0 0 112-112 112 112 0 0 0 -112-112m74.66667 112a12.444444 12.444444 0 0 0 -12.44445-12.44444 12.444444 12.444444 0 0 0 -12.44444 12.44444 12.444444 12.444444 0 0 0 12.44444 12.44444 12.444444 12.444444 0 0 0 12.44445-12.44444m-149.333337 0a12.444444 12.444444 0 0 0 12.444445 12.44444 12.444444 12.444444 0 0 0 12.444444-12.44444 12.444444 12.444444 0 0 0 -12.444444-12.44444 12.444444 12.444444 0 0 0 -12.444445 12.44444z" fill="#fff"/></svg>