<svg height="256" width="256" xmlns="http://www.w3.org/2000/svg"><g fill="#fff" transform="matrix(.4596735 0 0 .4596735 -624.441942 -41.843667)"><path d="m1656.5564 172.34714h74.6667v49.77778h-74.6667zm149.3333 87.11111h74.6667v49.77778h-74.6667zm0 87.11111h74.6667v49.77778h-74.6667zm-24.8889-49.77778h-74.6666v62.22223h74.6666v24.88889h-74.6666-24.8889v-136.88889h24.8889v24.88889h74.6666z" fill="#fff"/><path d="m1393.254 172.34714h74.6667v49.77778h-74.6667zm149.3333 87.11111h74.6667v49.77778h-74.6667zm0 87.11111h74.6667v49.77778h-74.6667zm-24.8889-49.77778h-74.6666v62.22223h74.6666v24.88889h-74.6666-24.8889v-136.88889h24.8889v24.88889h74.6666z" fill="#fff"/></g><g fill="#fff" transform="matrix(.4596735 0 0 .4596735 -624.441983 36.429976)"><path d="m1805.8897 259.45825h74.6667v49.77778h-74.6667zm0 87.11111h74.6667v49.77778h-74.6667zm-24.8889-49.77778h-74.6666v62.22223h74.6666v24.88889h-74.6666-24.8889v-180.61666l24.8889-.21754v68.8342h74.6666z" fill="#fff"/><path d="m1542.5873 259.45825h74.6667v49.77778h-74.6667zm0 87.11111h74.6667v49.77778h-74.6667zm-24.8889-49.77778h-74.6666v62.22223h74.6666v24.88889h-74.6666-24.8889v-184.31493l24.8889 3.48073v68.8342h74.6666z" fill="#fff"/></g></svg>