<svg height="80" viewBox="0 0 52.916665 21.166667" width="200" xmlns="http://www.w3.org/2000/svg" xmlns:xlink="http://www.w3.org/1999/xlink"><filter id="a" color-interpolation-filters="sRGB" height="1.065388" width="1.032255" x="-.016127" y="-.032694"><feGaussianBlur stdDeviation=".25231486"/></filter><g transform="translate(0 -275.83332)"><path d="m12.050781 288.40126c.000652-6.27245.01849-7.73799.09789-8.10439.355257-1.64156 1.301936-2.92786 2.503284-3.40234.284946-.11235 1.313376-.13671 5.758801-.13671h5.411616v19.27617h-13.77126zm0 0" fill="#c2470b" stroke-width=".100928"/><path d="m34.134938 295.77014c.01702-.0356 0-5.13627 0-9.5435v-9.45735l-4.638915.0408-4.655715.0252.112997 12.04921c-.01316 7.92901-.153401 5.55532.139866 6.73173.190669.76348-.36227-.40081 0 0 .554527.61451 1.520807.15381 5.439949.15567 1.956168.00049 3.584796.0346 3.601818-.002z" fill="#ffdf2b" stroke-width=".083218"/><path d="m43.200878 296.69756c-.0114-.037 0-4.47947 0-9.85225v-9.82136l3.103089.0782 6.221891.0254-.05512 18.13947c-.372266.63622-4.23199 1.45351-6.863158 1.45545-1.313067.0005-2.395126.0116-2.406706-.025z" fill="#9dd0f0" stroke-width=".069404"/><path d="m34.021312 284.04435.0077-8.17765 2.545914.35314c1.487632-.0212 6.712669.30136 6.712669.30136v19.35432l-6.202708-.0223-3.071633.0223z" fill="#19d5c6" stroke-width=".074829"/><rect fill="none" height="19.84375" rx="1.311837" ry="1.295217" stroke="#13243c" stroke-width="1.322917" width="51.59375" x=".661458" y="276.49478"/><path d="m13.515748 276.49478 6.455553 10.00339-6.455553 9.87364z" fill="#13243c"/><path d="m.66145831 276.49478h13.383457v19.84375h-13.383457z" fill="#13243c"/><path d="m14.045047 277.15558v.15917l5.926254 9.18342-5.926254 9.06404v.11524h36.89749c.37625 0 .650608-.27711.650608-.6351v-17.25166c0-.35798-.274358-.63511-.650608-.63511z" fill="none" filter="url(#a)" opacity=".428" stroke="#13243c" stroke-width="1.068"/><g fill="#fff" transform="matrix(.16402385 0 0 .16356667 -15.422515 262.096794)"><circle cx="118.58942" cy="133.04738" fill="#69f" r="10.052169"/><circle cx="145.05559" cy="165.30467" fill="#c00" r="10.052169"/><circle cx="171.07361" cy="140.79572" fill="#fc0" r="10.052169"/><path d="m118.50508 114.74804c-.97314 0-1.75667 1.54615-1.75667 3.46646v65.85902c0 1.92032.78353 3.46594 1.75667 3.46594.97316 0 1.75669-1.54562 1.75669-3.46594v-65.85902c0-1.92031-.78353-3.46646-1.75669-3.46646zm26.34863 0c-.97316 0-1.75669 1.54615-1.75669 3.46646v51.22217 14.63685c0 1.92032.78353 3.46594 1.75669 3.46594.97314 0 1.75667-1.54562 1.75667-3.46594v-65.85902c0-1.92031-.78353-3.46646-1.75667-3.46646zm26.34861 0c-.97315 0-1.75616 1.54615-1.75616 3.46646v65.85902c0 1.92032.78301 3.46594 1.75616 3.46594.97314 0 1.75668-1.54562 1.75668-3.46594v-65.85902c0-1.92031-.78354-3.46646-1.75668-3.46646z" fill="#fff" stroke-width="1.006743"/><circle cx="118.58942" cy="133.04738" fill="#69f" r="10.052169"/><circle cx="145.05559" cy="165.30467" fill="#c00" r="10.052169"/><circle cx="171.07361" cy="140.79572" fill="#fc0" r="10.052169"/></g></g></svg>