<svg height="17" viewBox="0 0 280 17" width="280" xmlns="http://www.w3.org/2000/svg"><g fill="#fff" transform="matrix(2.5056502 0 0 2.4845625 276.97069 -5.494781)"><path d="m-97.267608 7.091712q.643229 0 .770182-.4485678.03385-.1861979.03385-.4908854v-2.8860678h1.100261v3.0976563q0 .8463542-.440104 1.3203126-.228516.2539063-.592448.3554688-.363933.093099-1.015625.093099h-8.802078q-.82943 0-1.35417-.4570312-.55859-.4908855-.55013-1.3118491 0-.7617187.50781-1.2695312.51628-.5162761 1.28646-.5162761l7.033201-.016927q.499349.033854.499349.5247396 0 .5247396-.524739.5247396-.01693 0-.04232 0-.01693-.00846-.03385-.00846l-6.770831-.00846q-.93945 0-.91406.7447917.0169.7532553 1.00716.7532553z"/><path d="m-82.481801 4.3072066h-10.333984q-.448568 0-.634766.1946615-.11849.1184896-.14388.2454427-.02539.1269532-.02539.4908855v2.8945313h-1.10026v-3.0976563q0-.8463542.440104-1.3203126.414713-.4485677 1.608073-.4485677h10.181641q.524739 0 .524739.516276 0 .5162761-.516277.5247396z"/><path d="m-69.177112 7.091712q.600911-.00846.600911.516276 0 .5247396-.677083.5247396h-9.504558q-1.24414 0-1.802734-.4824219-.753255-.6432292-.753255-1.9381511 0-1.0664063.626302-1.7773438.592448-.6686198 1.929687-.6686198h8.370443q.744792 0 1.252605.3639323.57552.40625.55013 1.1256511-.02539.5585937-.473959 1.015625-.448567.4485677-1.303385.4485677l-7.02474.00846q-.499349-.025391-.499349-.5247396 0-.5162761.52474-.5162761h.07617l7.16862.00846q.457031-.050781.43164-.4654949-.02539-.4231771-.440104-.4231771h-8.480469q-.744792 0-1.091797.2454428-.490885.3470052-.490885 1.1425781 0 1.3964845 1.413411 1.3964845z"/><path d="m-65.402374 4.3072066q-.753255 0-1.083334.3216146-.330078.3216146-.330078 1.0748699 0 .7871094.490886 1.1341146.355469.2539063 1.091797.2539063h6.110677q.52474 0 .52474.516276 0 .499349-.499349.5247396h-6.288412q-1.328776 0-1.929688-.6770833-.626302-.7109376-.626302-1.7688803 0-1.9296876 1.472657-2.310547.423177-.110026 1.083333-.110026h8.167318q1.184896 0 1.599609.4485677.440105.4739584.440105 1.3203126v3.0976563h-1.100261v-2.8945313q0-.3470053-.03385-.4824219-.11849-.4485678-.761719-.4485678z"/><path d="m-47.595079 4.3072066v3.2584637.00846.00846q0 .5501302-.55013.5501302-.55013 0-.55013-.5501302v-3.2753908h-3.935547q-.448568 0-.634766.1946615-.118489.1184896-.14388.2454427-.02539.1269532-.02539.4908855v2.3359376q0 .5585937-.550131.5585937-.55013 0-.55013-.5501302v-.00846-2.5390626q0-.8463542.440104-1.3203126.414714-.4485677 1.608073-.4485677h8.658204q1.184896 0 1.599609.4485677.448568.4908854.448568 1.3203126v2.5390626.00846q0 .5501302-.558594.5501302-.55013 0-.55013-.5501302v-.00846-2.3359376q0-.3554688-.02539-.4824219-.135416-.4485678-.770182-.4485678z"/><path d="m-30.422556 7.091712q.981771 0 1.007161-.7532553.01693-.7447917-.914062-.7447917l-6.770834.00846q-.01693 0-.04232.00846-.01693 0-.03385 0-.524739 0-.524739-.5247396 0-.4908854.499349-.5247396h.02539l6.99935.016927q.770182 0 1.277994.5162761.516276.5078125.52474 1.2695312.0085.8209636-.55013 1.3033855-.52474.4654948-1.354167.4654948h-8.802084q-1.201823 0-1.608073-.4485677-.440104-.4824219-.440104-1.3203126v-3.0976491h1.100261v2.8860678q0 .3723958.03385.4908854.05924.4485678.770182.4485678z"/><path d="m-25.183617 4.3072066q-.753255 0-1.083333.3216146-.330078.3216146-.330078 1.0748699 0 .7871094.490885 1.1341146.355469.2539063 1.091797.2539063h7.337891q.736328 0 1.091797-.2539063.482422-.3470052.482422-1.1341146 0-.7532553-.330078-1.0748699-.330078-.3216146-1.083334-.3216146zm.01693 3.825521q-1.328777 0-1.929688-.6770833-.626302-.7109376-.626302-1.7688803 0-1.9296876 1.472656-2.310547.423177-.110026 1.083334-.110026h7.634114q1.252605 0 1.811198.4739583.753256.6432292.753256 1.9466147 0 1.0748698-.617839 1.7604167-.617839.6855469-1.946615.6855469z"/><path d="m-2.0696839 3.2746545q.499349.016927.499349.5162761 0 .499349-.499349.5247396h-4.0455731q-.050781.00846-.1438802.00846-.1354166.042318-.2454427.1523438-.1015625.110026-.2708333.40625l-.4570313.8125.4570313.8125001q.1946614.3470052.2708333.4147135.084635.1015625.2454427.1523438.042318-.00846.1438802.00846h4.0455731q.499349.033854.499349.5247396 0 .4908855-.499349.5162761h-4.1809897q-.067708 0-.1692709.00846-.1015625 0-.1692708-.00846-.6516927-.0677014-1.1679688-1.0156181l-.1523438-.2792968-.1523437.2792968q-.5162761.9479167-1.1764324 1.0156251-.076172.00846-.1777343.00846-.1015625-.00846-.1608073-.00846l-4.2402344.00846q-.499349-.025391-.499349-.516276 0-.4908855.499349-.5247396h.01693.0085q.135417 0 .583985 0 1.379557-.00846 1.244141-.00846h2.2513017q.1015625-.016927.1523438-.00846.1354166-.050781.2285156-.1438802.1015625-.1015625.2792969-.4231771l.4570312-.8125001-.4570312-.8125q-.1608473-.287764-.2708734-.3977901-.1015625-.1184896-.2369791-.1608073-.1015626 0-.1523438-.00846l-4.0794277.00846h-.0085-.01693q-.499349-.025391-.499349-.5247396 0-.4993489.499349-.516276.14388 0 .609375 0 1.430338-.00846 1.286458-.00846h2.682943q.6686199.084635 1.1764324 1.0156251l.1523437.2792969.1523438-.2792969q.5078125-.9394532 1.1679688-1.0156251z"/></g></svg>