<svg height="40mm" viewBox="0 0 80 40" width="80mm" xmlns="http://www.w3.org/2000/svg" xmlns:xlink="http://www.w3.org/1999/xlink"><linearGradient id="a" gradientUnits="userSpaceOnUse" x1="40.502346" x2="39.13393" y1="11.002418" y2="103.84452"><stop offset="0" stop-color="#a3a3a3"/><stop offset="1" stop-color="#808080" stop-opacity="0"/></linearGradient><rect fill="url(#a)" height="37.999996" rx="3.388466" ry="2.937325" width="78" x="1.133929" y="1.05505"/><text fill="#fff" stroke-width=".264583" transform="scale(1.0391933 .96228488)" x="27.990953" y="34.304668"><tspan fill="#fff" stroke-width=".264583" x="27.990953" y="102.53712"/></text><g fill="#fff" stroke-width=".264583"><path d="m8.5971946 29.578949v-18.181836h3.6710934v7.156153h7.19336v-7.156153h3.671093v18.181836h-3.671093v-7.949902h-7.19336v7.949902z"/><path d="m26.940261 29.578949v-18.181836h13.481348v3.075782h-9.810254v4.030761h9.128125v3.063379h-9.128125v4.948535h10.157519v3.063379z"/><path d="m44.005888 29.578949v-18.033008h3.671093v14.969629h9.128125v3.063379z"/><path d="m59.434402 29.578949v-18.181836h5.891113q3.348633 0 4.365625.272852 1.562695.409277 2.616894 1.785937 1.054199 1.364258 1.054199 3.534668 0 1.674317-.607714 2.815332-.607715 1.141016-1.550293 1.79834-.930176.644922-1.897559.855762-1.314648.260449-3.807519.260449h-2.393653v6.858496zm3.671093-15.106054v5.159374h2.00918q2.17041 0 2.902148-.285253.731739-.285254 1.141016-.892969.42168-.607715.42168-1.413867 0-.992188-.58291-1.63711-.582911-.644922-1.475879-.806152-.657325-.124023-2.6417-.124023z"/></g></svg>