<svg height="405" width="720" xmlns="http://www.w3.org/2000/svg"><g fill="#fff" transform="matrix(.90603751 0 0 .84318137 36.041846 45.796727)"><text x="129.08475" y="157.67796"><tspan fill="#fff" x="129.08475" y="157.67796"/></text><g transform="matrix(3.2280261 0 0 5.3465287 -724.19719 -881.45427)"><path d="m305.18314 185.7312v7.53906q0 1.28907-1.26954 1.28907-1.26953 0-1.26953-1.26954v-.0195-9.9414h24.70703q2.73438 0 3.69141 1.03515 1.03516 1.13282 1.03516 3.04688v5.85937.0195q0 1.26954-1.28907 1.26954-1.26953 0-1.26953-1.26954v-.0195-5.39062q0-.82031-.0586-1.11328-.3125-1.03516-1.77734-1.03516z"/><path d="m339.44095 185.7312q-1.73828 0-2.5.74219-.76172.74219-.76172 2.48047 0 1.8164 1.13281 2.61718.82031.58594 2.51953.58594h16.9336q1.69922 0 2.51953-.58594 1.11328-.80078 1.11328-2.61718 0-1.73828-.76172-2.48047-.76172-.74219-2.5-.74219zm.0391 8.82813q-3.06641 0-4.45312-1.5625-1.44532-1.64063-1.44532-4.08204 0-4.45312 3.39844-5.33203.97656-.2539 2.5-.2539h17.61719q2.89062 0 4.17969 1.09375 1.73828 1.48437 1.73828 4.49218 0 2.48047-1.42578 4.0625-1.42579 1.58204-4.49219 1.58204z"/></g><g transform="matrix(3.1914645 0 0 4.8635776 -477.90735 -932.30179)"><path d="m160.59792 245.39221q-1.03516 0-1.46485.44922-.27344.27344-.33203.56641-.0586.29297-.0586 1.13281v6.67969h-2.53907v-7.14844q0-1.95313 1.01563-3.04688.95703-1.03515 3.71094-1.03515h20.3125q1.89453 0 3.125 1.07422 1.28906 1.13281 1.26953 3.00781-.0195 1.77734-1.21094 2.94922-1.17187 1.17187-2.94922 1.17187l-16.21094.0391q-1.15234-.0586-1.15234-1.21094 0-1.21094 1.21094-1.21094.11719 0 .17578.0195h15.625q2.14844 0 2.10937-1.71875-.0586-1.71875-2.32421-1.71875z"/><path d="m215.38307 245.39221h-23.84765q-1.03516 0-1.46485.44922-.27344.27344-.33203.56641-.0586.29297-.0586 1.13281v6.67969h-2.53907v-7.14844q0-1.95313 1.01563-3.04688.95703-1.03515 3.71094-1.03515h23.49609q1.21094 0 1.21094 1.1914 0 1.19141-1.19141 1.21094z"/><path d="m246.0862 251.81799q1.38672-.0195 1.38672 1.19141 0 1.21094-1.5625 1.21094h-21.9336q-2.87109 0-4.16015-1.11328-1.73829-1.48438-1.73829-4.47266 0-2.46094 1.44532-4.10156 1.36718-1.54297 4.45312-1.54297h19.31641q1.71875 0 2.89062.83984 1.32813.9375 1.26953 2.59766-.0586 1.28906-1.09375 2.34375-1.03515 1.03515-3.00781 1.03515l-16.21094.0195q-1.15234-.0586-1.15234-1.21094 0-1.19141 1.21094-1.19141h.17578l16.54297.0195q1.05469-.11718.99609-1.07422-.0586-.97656-1.01562-.97656h-19.57032q-1.71875 0-2.51953.56641-1.13281.80078-1.13281 2.63672 0 3.22265 3.26172 3.22265z"/><path d="m269.99245 242.98987h7.26562q1.15235.0781 1.15235 1.21094 0 1.13281-1.15235 1.1914h-.0391-.0195-6.89453q-.0977.0195-.33203.0195-.35157.11719-.54688.33203-.19531.19532-.625.97657l-3.94531 7.01172-.0195-.0195q-.33203.44922-.87891.50782h-.0586-.0781q-.625 0-.99609-.50782l-.0195.0195-3.94532-7.03125q-.37109-.66407-.625-.9375-.2539-.27344-.54687-.35157-.23438 0-.35156-.0195h-7.1875-.0195-.0391q-1.15234-.0586-1.15234-1.21094 0-1.15234 1.15234-1.1914h8.16407.0195.0195.0586.0781q1.5625.19531 2.71484 2.34375l2.67578 4.96094 2.69531-4.96094q1.17188-2.16797 2.71485-2.32422.0781-.0195.76172-.0195z"/><path d="m281.0276 251.81799q0 0 5.58594 0h6.71875v-6.40625h-12.24609-.0195-.0391q-1.15234-.0586-1.15234-1.21093 0-1.15235 1.15234-1.19141h26.85547q1.36719-.0195 1.36719 1.19141 0 1.21093-1.54297 1.21093h-11.83594v6.40625h12.01172q1.36719-.0195 1.36719 1.19141 0 1.21094-1.54297 1.21094h-26.62109-.0195-.0391q-1.15234-.0586-1.15234-1.19141 0-1.17187 1.15234-1.21094z"/><path d="m338.74245 251.81799q1.38672-.0195 1.38672 1.19141 0 1.21094-1.5625 1.21094h-21.9336q-2.87109 0-4.16015-1.11328-1.73829-1.48438-1.73829-4.47266 0-2.46094 1.44532-4.10156 1.36718-1.54297 4.45312-1.54297h19.31641q1.71875 0 2.89062.83984 1.32813.9375 1.26953 2.59766-.0586 1.28906-1.09375 2.34375-1.03515 1.03515-3.00781 1.03515l-16.21094.0195q-1.15234-.0586-1.15234-1.21094 0-1.19141 1.21094-1.19141h.17578l16.54297.0195q1.05469-.11718.99609-1.07422-.0586-.97656-1.01562-.97656h-19.57032q-1.71875 0-2.51953.56641-1.13281.80078-1.13281 2.63672 0 3.22265 3.26172 3.22265z"/><path d="m366.63307 251.81799q.97656 0 1.44531-.46875.39063-.33203.39063-1.69922v-5.37109-.0195q0-1.26953 1.26953-1.26953 1.28906 0 1.28906 1.26953v.0195 5.85938q0 3.20312-2.38281 3.84765-.87891.23438-2.34375.23438h-19.98047q-2.77344 0-3.71094-1.03516-1.01562-1.11328-1.01562-3.04687v-5.85938-.0195q0-1.26953 1.26953-1.26953 1.26953 0 1.26953 1.28906v5.37109q0 .85938.0781 1.13282.13672 1.03515 1.77734 1.03515h9.08203v-7.57812q0-1.25 1.26953-1.25 1.26953 0 1.26953 1.26953v.0195.0195 7.51953z"/></g></g></svg>