<svg height="40mm" viewBox="0 0 80 40" width="80mm" xmlns="http://www.w3.org/2000/svg" xmlns:xlink="http://www.w3.org/1999/xlink"><linearGradient id="a" gradientUnits="userSpaceOnUse" x1="40.502346" x2="39.13393" y1="11.002418" y2="103.84452"><stop offset="0" stop-color="#a3a3a3"/><stop offset="1" stop-color="#808080" stop-opacity="0"/></linearGradient><rect fill="url(#a)" height="37.999996" rx="3.388466" ry="2.937325" width="78" x="1.133929" y="1.05505"/><text fill="#fff" stroke-width=".264583" transform="scale(1.0391933 .96228488)" x="27.990953" y="34.304668"><tspan fill="#fff" stroke-width=".264583" x="27.990953" y="102.53712"/></text><g fill="#fff" stroke-width=".264583"><path d="m13.577326 29.399254v-15.106055h-5.3950191v-3.075781h14.4487301v3.075781h-5.382617v15.106055z"/><path d="m24.962678 29.399254v-18.181836h13.481347v3.075781h-9.810254v4.030762h9.128125v3.063379h-9.128125v4.948535h10.15752v3.063379z"/><path d="m40.081134 29.399254 6.213574-9.487793-5.630664-8.694043h4.291211l3.646289 5.841504 3.571875-5.841504h4.254004l-5.655469 8.830469 6.213575 9.351367h-4.427637l-4.030762-6.287988-4.043164 6.287988z"/><path d="m62.988261 29.399254v-15.106055h-5.39502v-3.075781h14.448731v3.075781h-5.382617v15.106055z"/></g></svg>