<?xml version="1.0" encoding="UTF-8" standalone="no"?>
<!-- Created with Inkscape (http://www.inkscape.org/) -->

<svg
   xmlns:dc="http://purl.org/dc/elements/1.1/"
   xmlns:cc="http://creativecommons.org/ns#"
   xmlns:rdf="http://www.w3.org/1999/02/22-rdf-syntax-ns#"
   xmlns:svg="http://www.w3.org/2000/svg"
   xmlns="http://www.w3.org/2000/svg"
   xmlns:sodipodi="http://sodipodi.sourceforge.net/DTD/sodipodi-0.dtd"
   xmlns:inkscape="http://www.inkscape.org/namespaces/inkscape"
   width="256"
   height="256"
   viewBox="0 0 67.733332 67.733335"
   version="1.1"
   id="svg8"
   inkscape:version="0.92.2 (5c3e80d, 2017-08-06)"
   sodipodi:docname="styles1.svg">
  <defs
     id="defs2" />
  <sodipodi:namedview
     id="base"
     pagecolor="#ffffff"
     bordercolor="#666666"
     borderopacity="1.0"
     inkscape:pageopacity="0"
     inkscape:pageshadow="2"
     inkscape:zoom="2.5493827"
     inkscape:cx="121.93442"
     inkscape:cy="112.76029"
     inkscape:document-units="mm"
     inkscape:current-layer="g15347"
     showgrid="false"
     units="px"
     inkscape:window-width="1920"
     inkscape:window-height="1025"
     inkscape:window-x="0"
     inkscape:window-y="27"
     inkscape:window-maximized="1" />
  <metadata
     id="metadata5">
    <rdf:RDF>
      <cc:Work
         rdf:about="">
        <dc:format>image/svg+xml</dc:format>
        <dc:type
           rdf:resource="http://purl.org/dc/dcmitype/StillImage" />
        <dc:title></dc:title>
      </cc:Work>
    </rdf:RDF>
  </metadata>
  <g
     inkscape:label="Ebene 1"
     inkscape:groupmode="layer"
     id="layer1"
     transform="translate(0,-229.26665)">
    <g
       id="g15347"
       transform="matrix(0.64668446,0,0,0.64668446,-68.003986,169.07472)"
       inkscape:export-xdpi="96"
       inkscape:export-ydpi="96">
      <g
         id="g857"
         transform="matrix(1.2381105,0,0,1.2381105,-21.789814,-41.685228)">
        <circle
           r="10.052169"
           cy="133.04738"
           cx="118.58942"
           id="path4195"
           style="opacity:1;fill:#ffffff;fill-opacity:1;stroke:none;stroke-width:6.61458302;stroke-linecap:round;stroke-linejoin:round;stroke-miterlimit:4;stroke-dasharray:none;stroke-dashoffset:0;stroke-opacity:1" />
        <circle
           style="opacity:1;fill:#ffffff;fill-opacity:1;stroke:none;stroke-width:6.61458302;stroke-linecap:round;stroke-linejoin:round;stroke-miterlimit:4;stroke-dasharray:none;stroke-dashoffset:0;stroke-opacity:1"
           id="circle4197"
           cx="145.05559"
           cy="165.30467"
           r="10.052169" />
        <circle
           r="10.052169"
           cy="140.79572"
           cx="171.07361"
           id="circle4199"
           style="opacity:1;fill:#ffffff;fill-opacity:1;stroke:none;stroke-width:6.61458302;stroke-linecap:round;stroke-linejoin:round;stroke-miterlimit:4;stroke-dasharray:none;stroke-dashoffset:0;stroke-opacity:1" />
        <path
           inkscape:connector-curvature="0"
           id="rect4201"
           d="m 119.23204,114.74804 c -0.96015,0 -1.73322,1.54615 -1.73322,3.46646 v 65.85902 c 0,1.92032 0.77307,3.46594 1.73322,3.46594 0.96016,0 1.73323,-1.54562 1.73323,-3.46594 V 118.2145 c 0,-1.92031 -0.77307,-3.46646 -1.73323,-3.46646 z m 25.99687,0 c -0.96016,0 -1.73323,1.54615 -1.73323,3.46646 v 65.85902 c 0,1.92032 0.77307,3.46594 1.73323,3.46594 0.96015,0 1.73322,-1.54562 1.73322,-3.46594 V 118.2145 c 0,-1.92031 -0.77307,-3.46646 -1.73322,-3.46646 z m 25.99686,0 c -0.96016,0 -1.73271,1.54615 -1.73271,3.46646 v 65.85902 c 0,1.92032 0.77255,3.46594 1.73271,3.46594 0.96015,0 1.73323,-1.54562 1.73323,-3.46594 V 118.2145 c 0,-1.92031 -0.77308,-3.46646 -1.73323,-3.46646 z"
           style="opacity:1;fill:#ffffff;fill-opacity:0.60869565;stroke:none;stroke-width:6.61458302;stroke-linecap:round;stroke-linejoin:round;stroke-miterlimit:4;stroke-dasharray:none;stroke-dashoffset:0;stroke-opacity:1" />
      </g>
    </g>
  </g>
</svg>
