<svg height="800" viewBox="0 0 800 800" width="800" xmlns="http://www.w3.org/2000/svg"><path d="m87.89442 88.556916h273.1551v-77.826468h-273.1551c-43.119463 0-78.0442927 34.827339-78.0442927 77.826468v272.392634h78.0442927zm234.13292 350.219104-156.08858 194.56617h468.26584l-117.06651-155.65297-79.21494 105.45487zm273.15508-175.10952c0-32.298-26.14481-58.36992-58.53326-58.36992-32.38835 0-58.53319 26.07192-58.53319 58.36992 0 32.29796 26.14484 58.36982 58.53319 58.36982 32.38845 0 58.53326-26.07186 58.53326-58.36982zm117.06648-252.936052h-273.15508v77.826468h273.15508v272.392634h78.0443v-272.392634c0-42.999129-34.92481-77.826468-78.0443-77.826468zm0 700.438172h-273.15508v77.82647h273.15508c43.11949 0 78.0443-34.82737 78.0443-77.82647v-272.3926h-78.0443zm-624.35448-272.3926h-78.0442927v272.3926c0 42.9991 34.9248297 77.82647 78.0442927 77.82647h273.1551v-77.82647h-273.1551z" fill="#fff" stroke-width="19.483828"/><path d="m-4 756h48v48h-48z" fill="none"/></svg>