<svg height="256" viewBox="0 0 256 256" width="256" xmlns="http://www.w3.org/2000/svg"><path d="m-34.943619 1350.9668c.517138-.3257 1.277512-1.0425 1.689719-1.5928 1.252152-1.6716 13.821873-23.148 13.954668-23.8427.09694-.5071-.159989-.8137-1.180363-1.4083-1.263555-.7365-1.38389-.7502-3.854276-.4401-1.4025.1761-2.73211.4649-2.95469.6418-.29364.2333-.374155.9262-.293412 2.5252.120231 2.3809.370432 2.7609 1.823102 2.769.45375 0 .825.1128.825.2451 0 .682-9.39907 15.1295-10.461733 16.081-.627655.562-.648867.562-1.275895 0-10.115392-8.507-19.154716-37.0004-16.713513-43.0783 4.996005.1638 9.553729 17.531 18.028326 38.0524 1.009985 0-2.984935-11.9813-6.866049-22.9144-4.145135-11.6768-7.632816-17.8886-10.444816-19.7119-2.80302-1.8175-4.758162-.3536-5.984361 4.4807-.631077 2.488-1.38195 8.4524-1.38195 10.9772 0 7.2743 2.078232 15.6137 5.413452 21.7228 5.444128 9.972 15.665316 18.02 19.6768 15.4933z" fill="#fff" transform="matrix(4.1561624 0 0 4.1561624 292.82118 -5376.78556)"/></svg>