<svg height="35" viewBox="0 0 392 171.5" width="80" xmlns="http://www.w3.org/2000/svg"><g stroke-width="2.334592" transform="matrix(1.9055708 0 0 2.311771 -52.118464 -275.9468)"><g fill="#fff" stroke-width="2.495748" transform="matrix(1.027251 0 0 .8518138 -3.670614 23.667674)"><path d="m80.159214 132.81857v19.22791h19.481101v-19.22791h8.360985v47.93927h-8.360985v-21.142h-19.481101v21.142h-8.36099v-47.93927z"/><path d="m116.27869 133.4276c3.67883-.60903 8.36098-.95704 13.37758-.95704 8.61183 0 14.54813 1.82708 18.81222 5.56826 4.43133 3.74117 7.19045 9.48345 7.19045 17.66183 0 8.52641-2.75912 14.96472-7.19045 19.05391-4.59854 4.35021-11.8726 6.52531-20.81885 6.52531-4.93299 0-8.61182-.26102-11.37095-.60903zm8.36098 40.54392c1.17054.17401 2.92636.17401 4.68216.17401 10.9529.087 17.39086-6.17729 17.39086-18.35787.0836-10.61451-5.76908-16.61779-16.30393-16.61779-2.67552 0-4.59855.17401-5.76909.52202z"/><path d="m161.59526 133.4276c3.17717-.60903 7.85932-.95704 12.70869-.95704 6.60518 0 11.12011 1.13104 14.21368 3.82818 2.50831 2.1751 3.92967 5.56827 3.92967 9.57045 0 6.17729-4.01327 10.35349-8.36099 12.00657v.174c3.26078 1.30507 5.26743 4.61122 6.43796 9.22245 1.42137 6.00328 2.67552 11.48454 3.59523 13.39863h-8.69544c-.66886-1.39207-1.7558-5.30725-3.09356-11.31054-1.33776-6.2643-3.51161-8.26539-8.27737-8.3524h-4.26412v19.66294h-8.36097v-47.24324zm8.36097 21.142h5.0166c5.68547 0 9.19709-3.13215 9.19709-7.91737 0-5.22025-3.51162-7.65636-9.02987-7.65636-2.67551 0-4.34771.174-5.18382.43501z"/></g><path d="m201.74204 189.71953h-140.423227c-7.400119 0-10.921142-4.32143-12.532459-7.92263-1.730673-3.8631-1.730673-7.59525-1.730673-7.79168v-33.26195c0-8.11905 3.938774-11.98216 7.221083-13.75001 3.461347-1.89881 6.922692-1.89881 7.101727-1.89881h140.363549c14.14376 0 14.3228 15.51787 14.3228 15.71431v33.19646c0 8.11907-3.93878 11.98216-7.22109 13.75003-3.52102 1.96428-6.92269 1.96428-7.10171 1.96428zm-140.363549-61.28579c-.537105 0-11.219534.2619-11.219534 12.30953v33.26195c0 .52381.179035 12.30954 11.219534 12.30954h140.363549c.47742 0 11.21953-.19642 11.21953-12.30954v-33.26195c0-.52381-.17904-12.30953-11.21953-12.30953z" fill="#fff" stroke-width="2.334592"/></g></svg>