<svg height="40mm" viewBox="0 0 80 40" width="80mm" xmlns="http://www.w3.org/2000/svg" xmlns:xlink="http://www.w3.org/1999/xlink"><linearGradient id="a" gradientUnits="userSpaceOnUse" x1="40.502346" x2="39.13393" y1="11.002418" y2="103.84452"><stop offset="0" stop-color="#a3a3a3"/><stop offset="1" stop-color="#808080" stop-opacity="0"/></linearGradient><rect fill="url(#a)" height="37.999996" rx="3.388466" ry="2.937325" width="78" x="1.133929" y="1.05505"/><text fill="#fff" stroke-width=".264583" transform="scale(1.0391933 .96228488)" x="27.990953" y="34.304668"><tspan fill="#fff" stroke-width=".264583" x="27.990953" y="102.53712"/></text><g fill="#fff" stroke-width=".264583"><path d="m12.262645 29.473686v-18.181835h3.671093v18.181835z"/><path d="m19.456004 29.473686v-18.181835h3.571875l7.441406 12.141894v-12.141894h3.410645v18.181835h-3.683496l-7.329785-11.85664v11.85664z"/><path d="m37.79907 29.473686v-18.181835h12.464355v3.075781h-8.793261v4.303613h7.590234v3.075781h-7.590234v7.72666z"/><path d="m52.55786 20.494389q0-2.778124.830957-4.663281.620117-1.389062 1.686718-2.492871 1.079004-1.103808 2.356446-1.637109 1.699121-.719336 3.91914-.719336 4.018359 0 6.424414 2.492871 2.418457 2.492871 2.418457 6.93291 0 4.402832-2.393652 6.895703-2.393652 2.480469-6.399609 2.480469-4.055567 0-6.449219-2.468067-2.393652-2.480468-2.393652-6.821289zm3.782714-.124023q0 3.088184 1.42627 4.688086 1.426269 1.5875 3.621484 1.5875 2.195215 0 3.59668-1.575098 1.413867-1.5875 1.413867-4.750097 0-3.125391-1.37666-4.663282-1.364258-1.53789-3.633887-1.53789-2.269629 0-3.658691 1.562695-1.389063 1.550293-1.389063 4.688086z"/></g></svg>