<svg height="256" viewBox="0 0 256 256" width="256" xmlns="http://www.w3.org/2000/svg"><path d="m128 16c-61.824 0-112 50.176-112 112s50.176 112 112 112 112-50.176 112-112-50.176-112-112-112zm11.2 190.4h-22.4v-22.4h22.4zm23.184-86.8-10.08 10.304c-8.064 8.176-13.104 14.896-13.104 31.696h-22.4v-5.6c0-12.32 5.04-23.52 13.104-31.696l13.888-14.112c4.144-4.032 6.608-9.632 6.608-15.792 0-12.32-10.08-22.4-22.4-22.4s-22.4 10.08-22.4 22.4h-22.4c0-24.752 20.048-44.8 44.8-44.8s44.8 20.048 44.8 44.8c0 9.856-4.032 18.816-10.416 25.2z" fill="#fff"/></svg>