<svg height="40mm" viewBox="0 0 80 40" width="80mm" xmlns="http://www.w3.org/2000/svg" xmlns:xlink="http://www.w3.org/1999/xlink"><linearGradient id="a" gradientUnits="userSpaceOnUse" x1="40.502346" x2="39.13393" y1="11.002418" y2="103.84452"><stop offset="0" stop-color="#a3a3a3"/><stop offset="1" stop-color="#808080" stop-opacity="0"/></linearGradient><rect fill="url(#a)" height="37.999996" rx="3.388466" ry="2.937325" width="78" x="1.133929" y="1.05505"/><text fill="#fff" stroke-width=".264583" transform="scale(1.0391933 .96228488)" x="27.990953" y="34.304668"><tspan fill="#fff" stroke-width=".264583" x="27.990953" y="102.53712"/></text><g fill="#fff" stroke-width=".264583"><path d="m8.7141025 29.399254v-16.161632h4.8837675l2.932465 11.024305 2.899393-11.024305h4.894791v16.161632h-3.031684v-12.722049l-3.208073 12.722049h-3.141927l-3.197048-12.722049v12.722049z"/><path d="m27.587713 29.399254v-16.161632h11.98342v2.734028h-8.720225v3.582899h8.113889v2.723003h-8.113889v4.398698h9.028906v2.723004z"/><path d="m42.702035 29.399254v-16.161632h3.175l6.614584 10.792795v-10.792795h3.031684v16.161632h-3.274219l-6.515365-10.539236v10.539236z"/><path d="m58.962885 13.237622h3.263195v8.753298q0 2.083594.121267 2.700955.209462.992188.992188 1.598525.79375.595312 2.160763.595312 1.389063 0 2.094619-.562239.705555-.573264.848871-1.400087.143316-.826823.143316-2.745052v-8.940712h3.263195v8.488715q0 2.910417-.264584 4.112066-.264583 1.201649-.981163 2.028472-.705556.826823-1.896181 1.322917-1.190625.485069-3.108854.485069-2.315104 0-3.516753-.529166-1.190625-.540191-1.885157-1.389063-.694531-.859896-.915017-1.796962-.319705-1.389062-.319705-4.101041z"/></g></svg>