<svg height="40mm" viewBox="0 0 80 40" width="80mm" xmlns="http://www.w3.org/2000/svg" xmlns:xlink="http://www.w3.org/1999/xlink"><linearGradient id="a" gradientUnits="userSpaceOnUse" x1="40.502346" x2="39.13393" y1="11.002418" y2="103.84452"><stop offset="0" stop-color="#a3a3a3"/><stop offset="1" stop-color="#808080" stop-opacity="0"/></linearGradient><rect fill="url(#a)" height="37.999996" rx="3.388466" ry="2.937325" width="78" x="1.133929" y="1.05505"/><text fill="#fff" stroke-width=".264583" transform="scale(1.0391933 .96228488)" x="27.990953" y="34.304668"><tspan fill="#fff" stroke-width=".264583" x="27.990953" y="102.53712"/></text><g fill="#fff" stroke-width=".264583"><path d="m15.84795 29.578949v-18.181836h5.891113q3.348633 0 4.365625.272852 1.562696.409277 2.616895 1.785937 1.054199 1.364258 1.054199 3.534668 0 1.674317-.607715 2.815332-.607715 1.141016-1.550293 1.79834-.930176.644922-1.897558.855762-1.314649.260449-3.80752.260449h-2.393652v6.858496zm3.671094-15.106054v5.159374h2.009179q2.170411 0 2.902149-.285253.731738-.285254 1.141015-.892969.42168-.607715.42168-1.413867 0-.992188-.58291-1.63711-.58291-.644922-1.475879-.806152-.657324-.124023-2.641699-.124023z"/><path d="m37.452833 29.578949-6.498829-18.181836h3.981153l4.601269 13.456543 4.452442-13.456543h3.894335l-6.51123 18.181836z"/><path d="m49.793164 29.578949v-18.181836h7.72666q2.914551 0 4.229199.496094 1.327051.483691 2.120801 1.736328.79375 1.252637.79375 2.864942 0 2.046386-1.203027 3.385839-1.203027 1.327051-3.59668 1.674317 1.190625.694531 1.95957 1.525488.781348.830957 2.095997 2.951758l2.220019 3.54707h-4.39043l-2.654101-3.956348q-1.413867-2.1208-1.934766-2.666503-.520898-.558106-1.103808-.756543-.58291-.21084-1.847949-.21084h-.744141v7.590234zm3.671094-10.492383h2.716113q2.641699 0 3.299024-.223242.657324-.223242 1.029394-.768945.37207-.545703.37207-1.364258 0-.917773-.496093-1.475879-.483692-.570508-1.376661-.719336-.446484-.06201-2.678906-.06201h-2.864941z"/></g></svg>