<svg height="35" viewBox="0 0 392 171.5" width="80" xmlns="http://www.w3.org/2000/svg"><text fill="#fff" stroke-width=".910772" transform="scale(1.0279658 .972795)" x="142.93924" y="-3.24978"><tspan stroke-width=".910772" x="142.93924" y="307.27316"/></text><g fill="#fff" stroke-width="5.575271" transform="matrix(.88128645 0 0 .87648226 12.101329 16.119527)"><path d="m11.063626 15.324418h27.803703v74.581555q0 17.753037 1.033246 23.013197 1.784697 8.45383 8.453828 13.62006 6.763063 5.0723 18.41056 5.0723 11.83536 0 17.846972-4.79051 6.011611-4.88443 7.23272-11.92929 1.221109-7.04485 1.221109-23.388923v-76.178389h27.803706v72.3272q0 24.797902-2.25436 35.036422-2.25435 10.23853-8.35989 17.28338-6.01162 7.04486-16.156211 11.27178-10.144594 4.13298-26.488663 4.13298-19.7256 0-29.964126-4.50871-10.144594-4.60264-16.062274-11.83536-5.91768-7.32665-7.796309-15.31082-2.724011-11.83536-2.724011-34.942494z"/><path d="m150.36393 153.02789v-137.703472h27.8037v54.198435h54.48023v-54.198435h27.8037v137.703472h-27.8037v-60.210043h-54.48023v60.210043z"/><path d="m289.19458 15.324418h50.8169q17.18945 0 26.20687 2.63008 12.11715 3.569394 20.75884 12.680743 8.64169 9.111349 13.1504 22.35568 4.50871 13.1504 4.50871 32.500275 0 17.001584-4.22691 29.306604-5.16623 15.02903-14.74724 24.32824-7.23272 7.04486-19.53773 10.98998-9.20528 2.91187-24.61004 2.91187h-52.3198zm27.8037 23.294994v91.207418h20.75884q11.6475 0 16.81373-1.31504 6.76306-1.69077 11.17784-5.72982 4.50871-4.03905 7.32665-13.24433 2.81794-9.29921 2.81794-25.267553 0-15.968343-2.81794-24.516103-2.81794-8.54776-7.89024-13.338263-5.0723-4.790503-12.8686-6.481269-5.82375-1.31504-22.82534-1.31504z"/></g></svg>